<svg xmlns="http://www.w3.org/2000/svg" width="68" height="68" viewBox="0 0 68 68">
  <defs>
    <style>
      .cls-1 {
        fill: #18a3dd;
        fill-rule: evenodd;
      }
    </style>
  </defs>
  <path class="cls-1" d="M213,27a34,34,0,1,0,34,34A34,34,0,0,0,213,27ZM200.854,56.082a7.957,7.957,0,0,1,2.132-2.583,9.816,9.816,0,0,1,3.24-1.677,13.833,13.833,0,0,1,4.149-.59,11.191,11.191,0,0,1,4.805.907V51.413a3.067,3.067,0,0,0-.975-2.493,4.886,4.886,0,0,0-3.151-.816,10.478,10.478,0,0,0-3.762.657,18.477,18.477,0,0,0-3.627,1.927l-2.493-5.35A19.41,19.41,0,0,1,211.916,42.3q5.712,0,8.794,2.538t3.083,7.616v4.623a1.86,1.86,0,0,0,2.085,2.267V66.6q-1.179.227-2.221,0.341a17.554,17.554,0,0,1-1.859.114,6.13,6.13,0,0,1-3.513-.838,3.911,3.911,0,0,1-1.564-2.472l-0.181-.86a10.985,10.985,0,0,1-3.672,3.1,9.634,9.634,0,0,1-4.443,1.065,9.21,9.21,0,0,1-3.309-.589,8.21,8.21,0,0,1-2.652-1.609,7.377,7.377,0,0,1-1.745-2.425,7.3,7.3,0,0,1-.635-3.037A7.118,7.118,0,0,1,200.854,56.082ZM225.915,79.7H200.4V72.082h25.514V79.7ZM208.992,60.253a3.122,3.122,0,0,0,2.017.633,5.379,5.379,0,0,0,1.587-.249,5.718,5.718,0,0,0,1.451-.658,3.709,3.709,0,0,0,.816-0.792,1.48,1.48,0,0,0,.317-0.884V56.535a12.449,12.449,0,0,0-1.678-.453,8.468,8.468,0,0,0-1.631-.182,4.308,4.308,0,0,0-2.63.771,2.337,2.337,0,0,0-1.043,1.95A2,2,0,0,0,208.992,60.253Z" transform="translate(-179 -27)"/>
</svg>
